<!-- <svg xmlns="http://www.w3.org/2000/svg" viewBox="0 0 261.76 226.69"><path d="M161.096.001l-30.225 52.351L100.647.001H-.005l130.877 226.688L261.749.001z" fill="#41b883"/><path d="M161.096.001l-30.225 52.351L100.647.001H52.346l78.526 136.01L209.398.001z" fill="#34495e"/></svg> -->
<svg width="500" height="500" xmlns="http://www.w3.org/2000/svg" version="1.1" class="icon">

 <g>
  <title>Layer 1</title>
  <rect stroke="null" rx="100" id="svg_8" height="500" width="500" y="0" x="0.00001" fill="#426373"/>
  <path stroke="null" id="svg_1" fill="#ffffff" d="m180.44427,381.63681c1.88124,-18.31828 5.83143,-39.84359 11.85264,-64.57427a5942.80748,4822.26273 0 0 0 17.49635,-64.11564l2.25666,2.74841c1.50582,-6.41073 3.38706,-11.29828 5.64372,-14.65596c0,4.57957 -1.50582,10.22703 -4.51539,16.94574c-4.1379,8.54819 -6.39456,14.19733 -6.77205,16.94407c-12.79326,52.20976 -19.18988,82.74022 -19.18988,91.59473c0,7.02167 -2.25666,12.05987 -6.77205,15.11291zm-19.18988,-89.30494a165.5326,134.32063 0 0 1 6.20892,-36.63655l1.12833,0.45695c0,12.21386 -2.44437,24.27372 -7.33725,36.1796zm2.82186,3.20704l3.38706,-23.8151l1.12833,0l-4.51539,23.8151zm-8.03859,29.71364l-0.49713,-0.19416l-0.47444,-1.94163l0.01238,-0.24438c0.14439,-2.57266 0.80448,-5.83828 1.97613,-9.79519l0.53219,-1.7391c1.69147,-5.34283 2.53926,-9.23613 2.53926,-11.67824l0.5652,0.45863l-4.65359,25.13407zm-0.84161,-0.33811l-0.53013,-0.21425l-1.87711,-1.22524l-0.56313,-1.37421l0.56313,-0.91558l2.25873,1.83116l0.02063,0.10043l-0.02063,0.81515l0.14852,0.98253zm-12.00115,63.13311l-2.82186,0c1.50582,-5.18884 3.38706,-15.26523 5.64372,-30.22582c1.88124,-12.51682 4.1379,-22.43922 6.77205,-29.7672c-4.89081,26.56351 -8.08809,46.56063 -9.59391,59.99302zm32.17085,-15.11291l3.38499,-10.07472l0.5652,1.83116l-3.95019,8.24356zm12.81182,34.45891l0.10933,-0.30464c0.66627,-1.60017 1.62752,-2.9091 2.88168,-3.92678c1.88124,-1.52652 12.60348,-3.51167 32.16879,-5.95377c17.68407,-2.13747 29.53876,-3.20704 35.55791,-3.20704l1.12833,-0.91558c0.75291,0.30631 1.69147,0.91558 2.82186,1.83283l1.69147,0.45695c19.94279,-1.52652 34.99271,-2.59442 45.15388,-3.20536c0.75085,0 8.2758,-1.22189 22.57488,-3.66399c9.4062,-1.83116 16.93116,-2.74841 22.57488,-2.74841c5.64372,0 9.59391,0.76326 11.85264,2.28978a207.96775,168.75444 0 0 0 16.36596,-4.12094c6.77411,-1.83116 11.66492,-3.96863 14.6745,-6.41073c-13.92159,-11.29828 -25.96193,-16.94574 -36.11898,-16.94574c-13.17074,0 -25.3988,2.28978 -36.68624,6.86935c-3.38706,0 -7.52496,0.61094 -12.41783,1.83283c-6.39456,1.22189 -10.34682,1.98348 -11.85057,2.28978c-36.79905,1.22293 -76.38205,8.70051 -98.20402,8.70051l-1.12833,0c2.25666,-42.13337 13.73181,-90.82979 34.42751,-146.09093c5.26623,-13.74038 7.90038,-20.91437 7.90038,-21.52531l-2.25666,-0.91725c2.63415,-6.71536 4.7031,-12.05987 6.20892,-16.02849l-1.13039,-3.66399c4.89081,-11.2966 7.90038,-19.99712 9.03078,-26.10321c5.64372,-12.51849 10.15911,-21.98227 13.5441,-28.39467c0.37749,1.22189 0.5652,2.44378 0.5652,3.66399c6.0212,-11.90755 9.4062,-18.31828 10.15911,-19.23553c-4.51539,-22.59321 -12.60348,-37.2475 -24.26841,-43.96453l-1.12833,0c-3.01163,0 -5.08058,0.15232 -6.20892,0.45863l-0.5652,1.37253l-3.95019,-1.83116l-2.8198,0.91558l-1.12833,2.28978c-1.88124,-0.30464 -3.19728,-0.76326 -3.95019,-1.37253l0,0.91558c-2.25873,-0.30631 -3.85737,-0.45863 -4.79799,-0.45863c-0.94062,0 -1.41093,-0.45863 -1.41093,-1.37253c-10.53453,0 -18.62675,2.74506 -24.26841,8.24189c-9.03078,8.8545 -17.12093,27.17278 -24.26841,54.9565a4957.02548,4022.35463 0 0 1 -11.85264,59.53774c-1.88124,8.85283 -6.20892,24.57669 -12.98097,47.16822c-6.0212,19.54184 -9.78368,35.1117 -11.28744,46.71462c-2.63415,19.23386 -4.51745,34.65308 -5.64372,46.25432c-3.01163,9.46545 -4.51745,22.13458 -4.51745,38.01243l1.13039,0.91558l0.5652,1.83116l-1.13039,2.74841c0,3.35768 0.5652,5.64747 1.69353,6.86935l-0.01238,-0.00502l-3.93988,-2.28476l0,1.37253c0,0.30631 0.2826,1.07124 0.84573,2.29146c0.5652,1.22189 1.03551,1.98348 1.41093,2.28978l1.13039,2.28978c3.76248,1.83116 8.93589,2.67142 15.52023,2.5191c6.58434,-0.15399 11.19255,0.38163 13.8267,1.60184l-0.56313,4.57957l2.82186,-2.28978l0.56313,0l1.13039,-0.45695l1.69147,0c0.75291,0.61094 1.50582,1.37253 2.25873,2.28978l-2.25873,2.74674a780.66293,633.4652 0 0 1 6.20892,-6.41073c1.12833,0 2.25666,0.15232 3.38706,0.45863l-3.37881,9.60437l1.24797,-1.51146c2.03388,-2.46051 3.78104,-4.5327 5.23942,-6.21489l0.84161,-0.96245l1.12833,-0.45863l2.25873,1.83283l-0.16915,1.94163zm-17.32927,-77.37229l0.10314,-0.77163c0.35892,-2.54086 0.8478,-5.43991 1.46662,-8.69214l0.29291,-1.51815l2.65478,-3.35099l-2.59908,3.03798l0.03713,-0.16403c0.13408,-0.67957 0.27435,-1.37253 0.41874,-2.08056l0.44968,-2.16592c3.38499,-15.87617 5.26623,-24.88299 5.64372,-27.02046l-3.95019,11.44892c3.38499,-14.96059 6.01914,-28.08836 7.90038,-39.38496c1.50582,-2.13747 3.57477,-3.66566 6.20892,-4.57957l4.51539,-12.36618c0,4.27493 -1.88124,12.51849 -5.64372,24.73068c-3.76248,13.73871 -6.0212,22.7472 -6.77411,27.02046c-5.26623,41.21779 -11.47515,71.74825 -18.62469,91.59305l-2.82186,0.45863c-0.37542,-2.44378 -0.56313,-4.57957 -0.56313,-6.41073c0,-20.15278 3.57271,-38.92801 10.72224,-56.33071l0.5652,2.74674l-0.00206,3.79957z"/>
 </g>
</svg>